# xmcd CD database file
#
# Track frame offsets:
#	150
#	15948
#	31038
#	49321
#	67904
#	90114
#	112052
#	130138
#	140699
#	157227
#	179137
#	192451
#
# Disc length: 2731 seconds
#
# Revision: 0
# Processed by: cddbd v1.5.2PL0 Copyright (c) Steve Scherf et al.
# Submitted via: CDex 1.70beta2
#
DISCID=a30aa90c
DTITLE=Teraesa Vinson - Next To You
DYEAR=1900
DGENRE=Jazz
TTITLE0=Nobody Else But Me
TTITLE1=Next To You
TTITLE2=Opportunity Please Knock
TTITLE3=Foolish Heart
TTITLE4=Triste
TTITLE5=You Taught My Heart To Sing
TTITLE6=My How The Time Goes By
TTITLE7=I Remember You
TTITLE8=Ribbon in the Sky
TTITLE9=Just Sqeeze Me
TTITLE10=Old Devil Moon
TTITLE11=Bein' Green
EXTD=
EXTT0=
EXTT1=
EXTT2=
EXTT3=
EXTT4=
EXTT5=
EXTT6=
EXTT7=
EXTT8=
EXTT9=
EXTT10=
EXTT11=
PLAYORDER=
